<svg xmlns="http://www.w3.org/2000/svg" xmlns:xlink="http://www.w3.org/1999/xlink" width="347.77" height="219.85" viewBox="0 0 347.77 219.85"><defs><style>.cls-1{fill:#f5d100;}.cls-2{fill:#eb8175;}.cls-3{fill:#ebebff;}.cls-4{fill:#d6d7f4;}.cls-5{fill:#3d5ac4;}.cls-10,.cls-6{fill:#5571e9;}.cls-7{fill:#27429c;}.cls-8{fill:#312c76;}.cls-9{fill:#151247;}.cls-10{opacity:0.16;}.cls-11{clip-path:url(#clip-path);}.cls-12{fill:#fff;}.cls-13{fill:#14103d;}.cls-14{fill:#231c61;}.cls-15{fill:#e1ad9d;}.cls-16{fill:#c8c6f2;}.cls-17{fill:#d8d7fd;}.cls-18{fill:#091218;}.cls-19{fill:#1b2934;}.cls-20{fill:#e16c5f;}.cls-21{clip-path:url(#clip-path-2);}.cls-22,.cls-23,.cls-27,.cls-28,.cls-29,.cls-30,.cls-32,.cls-33,.cls-35,.cls-40{fill:none;}.cls-22,.cls-27{stroke:#f1ab00;}.cls-22,.cls-27,.cls-29,.cls-30,.cls-32,.cls-33{stroke-miterlimit:10;}.cls-22{stroke-width:0.28px;}.cls-23,.cls-28{stroke:#fff;}.cls-23,.cls-28,.cls-35,.cls-40{stroke-linecap:round;stroke-linejoin:round;}.cls-23{stroke-width:1.12px;}.cls-24{fill:#334fbe;}.cls-25{fill:#4265d1;}.cls-26{clip-path:url(#clip-path-3);}.cls-27{stroke-width:0.28px;}.cls-28{stroke-width:1.13px;}.cls-29,.cls-40{stroke:#3d5ac4;}.cls-29,.cls-30,.cls-35{stroke-width:2.65px;}.cls-30,.cls-35{stroke:#5571e9;}.cls-31{fill:#2f4dab;}.cls-32,.cls-33{stroke:#231c61;}.cls-32{stroke-width:2.16px;}.cls-33{stroke-width:1.11px;}.cls-34{fill:#373482;}.cls-36{clip-path:url(#clip-path-4);}.cls-37{fill:#fafafa;}.cls-38{fill:#e8c400;}.cls-39{clip-path:url(#clip-path-5);}.cls-40{stroke-width:1.14px;}</style><clipPath id="clip-path"><rect class="cls-1" x="92.72" y="146.38" width="163.89" height="18.09"/></clipPath><clipPath id="clip-path-2"><path class="cls-2" d="M103,63.26a5.39,5.39,0,1,0,7.17-2.6A5.38,5.38,0,0,0,103,63.26Z"/></clipPath><clipPath id="clip-path-3"><path class="cls-2" d="M205.3,144a5.46,5.46,0,1,0,7.68-.76A5.46,5.46,0,0,0,205.3,144Z"/></clipPath><clipPath id="clip-path-4"><path class="cls-1" d="M115.9,216.26l9.87-25.51a1.43,1.43,0,0,1,2.67,0l9.87,25.51Z"/></clipPath><clipPath id="clip-path-5"><path class="cls-1" d="M259.26,216.34l9.87-25.51a1.42,1.42,0,0,1,2.66,0l9.88,25.51Z"/></clipPath></defs><g id="Camada_2" data-name="Camada 2"><g id="OBJECTS"><path class="cls-3" d="M344.3,156.89a73.79,73.79,0,0,0,1.92-37.27c-4.17-19.32-17.63-42.71-56.48-52.8-73.53-19.11-99.06-75-167.85-57.19,0,0-36.91,6.71-54.38,67.79s-85.93,62.12-62.36,115.3C9,201.41,19.38,210.9,34.27,219.85l279-.93C332.5,195.74,338.5,175.69,344.3,156.89Z"/><path class="cls-4" d="M278.48,113.2H268V101.76A12.12,12.12,0,0,0,258.64,90V75.75h-3.85V89.69a12.12,12.12,0,0,0-11,12.07v11.78H233.36v13.13h-.7v24.41L213.73,151V121.77H192.05v21.38H176.83v20.77H158.45v55h150.8V149.57h-30.8Z"/><polygon class="cls-4" points="62.52 143.42 62.52 116.09 72.76 116.09 72.76 101.47 76.61 101.47 76.61 116.09 86.05 116.09 86.05 143.42 96.64 143.42 96.64 159.79 113.52 159.79 113.52 104.02 148.75 104.02 148.75 218.89 125.79 218.89 115.9 218.89 91.01 218.89 79.52 218.89 49.49 218.89 49.49 143.42 62.52 143.42"/><path class="cls-5" d="M255,218.61l-160.58.13a11,11,0,0,1-11-11h0L266,207.59h0A11,11,0,0,1,255,218.61Z"/><path class="cls-6" d="M255,214.82,94.42,215a11,11,0,0,1-10.34-7.21H83.4a11,11,0,0,0,11,11L255,218.61a11,11,0,0,0,11-11h-.69A11,11,0,0,1,255,214.82Z"/><path class="cls-7" d="M185.08,211.34l-20.75,0a3.7,3.7,0,0,1-3.69-3.68h0l28.12,0h0A3.67,3.67,0,0,1,185.08,211.34Z"/><path class="cls-6" d="M256.61,207.6l-163.81.13-.08-98.88A10.28,10.28,0,0,1,103,98.57l143.27-.11a10.27,10.27,0,0,1,10.28,10.27Z"/><rect class="cls-8" x="101.29" y="107.06" width="146.75" height="92.06"/><rect class="cls-9" x="101.32" y="190.32" width="146.75" height="8.8"/><rect class="cls-9" x="101.25" y="107.06" width="146.75" height="4.37"/><polygon class="cls-10" points="150.19 107.08 101.29 156.06 101.32 199.18 101.43 199.18 193.42 107.05 150.19 107.08"/><polygon class="cls-10" points="120.27 199.17 141.94 199.15 233.93 107.01 212.26 107.03 120.27 199.17"/><polygon class="cls-10" points="230.81 199.08 248.06 181.8 248.03 149.12 196.26 199.1 230.81 199.08"/><rect class="cls-1" x="92.72" y="146.38" width="163.89" height="18.09"/><g class="cls-11"><polygon class="cls-12" points="113.17 170.82 99.06 170.82 111.2 143.06 125.3 143.06 113.17 170.82"/><polygon class="cls-12" points="143.24 170.82 129.14 170.82 141.28 143.06 155.38 143.06 143.24 170.82"/><polygon class="cls-12" points="173.31 170.82 159.21 170.82 171.35 143.06 185.45 143.06 173.31 170.82"/><polygon class="cls-12" points="203.38 170.82 189.28 170.82 201.42 143.06 215.52 143.06 203.38 170.82"/><polygon class="cls-12" points="233.45 170.82 219.35 170.82 231.49 143.06 245.59 143.06 233.45 170.82"/></g><path class="cls-13" d="M79.56,115.14l-3.2.13-1.88-.6a2,2,0,0,0-2.3.81l-.24.35L81.31,121l1.81-3.88Z"/><path class="cls-13" d="M81.31,121.08l-9.44-5.21.33-.6a.23.23,0,0,1,.33-.09l9.23,5.09-.45.81"/><polygon class="cls-2" points="83.12 117.12 85.59 112.83 83.12 108.42 79.56 115.14 83.12 117.12"/><path class="cls-13" d="M102.5,92.49s-13.34-3.83-14.63-.23-9.07,19.55-9.07,19.55l5.81,3L93.33,99.7l11.73-1Z"/><path class="cls-13" d="M91.65,120,89,121.67l-1.93.39a2.05,2.05,0,0,0-1.63,1.82l0,.42,10.7,0-.3-4.27Z"/><path class="cls-13" d="M96.19,124.35l-10.78,0v-.68a.24.24,0,0,1,.24-.25H96.19v.92"/><polygon class="cls-2" points="95.85 120.01 96.19 112.83 91.93 112.35 91.65 120 95.85 120.01"/><path class="cls-14" d="M104.31,91.87l-12.58.58s-1.81.09-1.69,4.33.11,21.28.11,21.28l6,.21,1.16-17.85,12.59-.16a6.76,6.76,0,0,0,6.17-4,4.88,4.88,0,0,0,.35-3.08Z"/><path class="cls-15" d="M92.37,89.34c0,1.19-.81,1.37-2,1.37s-2.32-.17-2.33-1.37a2.17,2.17,0,0,1,4.33,0Z"/><path class="cls-15" d="M93.89,90.56h-2.5a1.19,1.19,0,0,1-1.19-1.18h0a1.18,1.18,0,0,1,1.18-1.19h2.5a1.19,1.19,0,0,1,1.19,1.19h0A1.2,1.2,0,0,1,93.89,90.56Z"/><path class="cls-16" d="M93.79,90.81,93,86.72l10.27-1.12,2-12c.21-1.09,1.79-2.44,2.88-2.24l-.32-.08a2.43,2.43,0,0,1,1.89,2.56l-2,14.36a2,2,0,0,1-1.5,1.57Z"/><path class="cls-17" d="M114.31,71.63a2.23,2.23,0,0,1,.62.14l.1,0a5.08,5.08,0,0,1,3,4.35l-1.61,17c-10.64-.09-12.15-1.32-12.15-1.32l.84-17.41c.13-1.65.88-3.19,2.76-3.35h0Z"/><path class="cls-2" d="M102.59,90.67c.08,1.19-.72,1.43-1.91,1.51s-2.32,0-2.41-1.21a2.17,2.17,0,0,1,4.32-.3Z"/><path class="cls-2" d="M104.18,91.79l-2.49.17a1.18,1.18,0,0,1-1.26-1.1h0a1.19,1.19,0,0,1,1.1-1.27l2.49-.17a1.2,1.2,0,0,1,1.27,1.11h0A1.19,1.19,0,0,1,104.18,91.79Z"/><path class="cls-17" d="M104.1,92.05,103,88l11.19-1.8-.63-10.41A2.6,2.6,0,0,1,116,73.61h0a2.44,2.44,0,0,1,2,2.43l.81,12.48a2,2,0,0,1-1.39,1.67Z"/><path class="cls-18" d="M84.74,78.22,97,79.37a.86.86,0,0,1,.77.76l1.28,11a.86.86,0,0,1-.93,1L85.66,90.91a.85.85,0,0,1-.77-.77l-1.08-11A.85.85,0,0,1,84.74,78.22Z"/><path class="cls-19" d="M84,78.16l12.21,1.15a.85.85,0,0,1,.77.75l1.28,11a.86.86,0,0,1-.93,1L85,90.84a.86.86,0,0,1-.77-.76l-1.08-11A.86.86,0,0,1,84,78.16Z"/><path class="cls-18" d="M98.66,91.21,107,92a.46.46,0,0,1,.41.51h0a.45.45,0,0,1-.5.41l-8.85-.8Z"/><path class="cls-12" d="M91,84.83a1.34,1.34,0,1,1-1.2-1.45A1.33,1.33,0,0,1,91,84.83Z"/><polygon class="cls-16" points="113.17 78.22 113.44 86.04 103 88.03 112.2 85.15 113.17 78.22"/><path class="cls-2" d="M107.63,70.59l.7,1.87a1.8,1.8,0,0,0,1.59,1.19h0a1.84,1.84,0,0,0,1.82-2.55l-1.23-2.87Z"/><path class="cls-20" d="M108.25,72.26s3.44-.65,2.94-3.66-3.74-.66-3.74-.66l.31,3Z"/><path class="cls-2" d="M103,63.26a5.39,5.39,0,1,0,7.17-2.6A5.38,5.38,0,0,0,103,63.26Z"/><g class="cls-21"><path class="cls-14" d="M109.83,66.61S109,70.93,112.16,71s1.45-8.11,1.45-8.11l-5-5.06-7.69,1.89.76,5s1.23.65,7.84-.44Z"/><polygon class="cls-14" points="106.69 63.23 109.22 66.92 111.4 64.52 106.69 63.23"/></g><path class="cls-2" d="M109,65.61a1.52,1.52,0,1,0,2-.74A1.51,1.51,0,0,0,109,65.61Z"/><path class="cls-1" d="M101.9,64.65s-1.17-4.26,1.59-6.89a5.53,5.53,0,0,1,8,.38,8.48,8.48,0,0,1,1.78,5.4Z"/><path class="cls-22" d="M102.48,64.57l0-2.65a1.25,1.25,0,0,1,1.19-1.26h0a1.24,1.24,0,0,1,1.3,1.12l.27,2.65"/><line class="cls-23" x1="113.28" y1="63.54" x2="100.9" y2="64.73"/><polygon class="cls-2" points="226 206.99 228.77 209.68 225.61 211.38 222.9 208.73 226 206.99"/><path class="cls-13" d="M206.46,186.91l1.86,8.21a13,13,0,0,0,2.11,4.67l12.21,11,4.82-3.93-10.42-11-3.82-14.55Z"/><path class="cls-13" d="M225.52,211.31l-1,3.19-1.15,1.59a2,2,0,0,0,0,2.42l.26.34,7.79-7.26-3.12-2.92Z"/><polyline class="cls-13" points="231.55 211.61 223.7 218.93 223.07 218.25 230.92 210.94 231.55 211.61"/><polygon class="cls-2" points="199.3 211.99 198.26 215.46 194.69 214.5 195.73 211.09 199.3 211.99"/><path class="cls-14" d="M204.1,177.75l-10,33.85,6.32,1.58,5.64-17,6.92-11.1a16.91,16.91,0,0,0,1-1.55,6.42,6.42,0,0,0,.79-3.24l0-2.2Z"/><path class="cls-13" d="M194.89,214.17l-3.16,1.17-2,.06a2,2,0,0,0-1.9,1.54l-.11.41,10.58,1.74.41-4.28Z"/><polyline class="cls-13" points="198.36 219.16 187.7 217.41 187.85 216.49 198.51 218.25 198.36 219.16"/><polygon class="cls-24" points="190.12 143.37 186.07 149.69 188.01 151.08 192.2 144.4 190.12 143.37"/><path class="cls-25" d="M184.86,132.91s1.87,7.83,11.35,10.91a.75.75,0,0,1,.52.6,2.87,2.87,0,0,1-2,3.45.8.8,0,0,1-.6-.1c-1.45-.91-8.58-5.07-15.5-3.87Z"/><path class="cls-24" d="M184.86,132.91s-1.73,7.81-6.2,11C178.66,143.9,179.29,137.05,184.86,132.91Z"/><path class="cls-2" d="M184.75,149.28a3.21,3.21,0,0,0,2.33,3.48,2.65,2.65,0,0,0,3.13-2.07,3.2,3.2,0,0,0-2.32-3.48A2.66,2.66,0,0,0,184.75,149.28Z"/><polyline class="cls-2" points="192.36 153.5 189.55 150.56 187.72 152.82 192.36 156.22"/><path class="cls-16" d="M191.91,150.78l-3,4.41,8.11,7.43a4.17,4.17,0,0,0,1.53.14l10.71-1.38a3.07,3.07,0,0,0,2.91-3.2h0c-.08-1.69.24-4.13-1.45-4.05l-12.44,2.55Z"/><path class="cls-17" d="M215.93,160.9a6.16,6.16,0,0,0-2.76-5.92,3.92,3.92,0,0,0-2.42-.85,6.08,6.08,0,0,0-5.27,4.21c-1.6,4.9-2,19.39-2,19.39l11.48.39Z"/><polygon class="cls-16" points="211.69 161.27 215.14 173.95 215.84 163.19 211.69 161.27"/><path class="cls-2" d="M225.76,186.29a3.2,3.2,0,0,0,.17-4.18,2.65,2.65,0,0,0-3.75-.18,3.22,3.22,0,0,0-.18,4.18A2.66,2.66,0,0,0,225.76,186.29Z"/><polyline class="cls-2" points="220.55 177.26 222.64 182.42 225.45 181.68 223.71 176.2"/><path class="cls-17" d="M220.68,181.24l5.75-1.26-3.9-13.33a4.11,4.11,0,0,0-.69-1.37l-7.15-8.91c-1-1.38-2.6-1.14-4-.17h0a3.05,3.05,0,0,0-.76,4.26l6.89,8.29Z"/><path class="cls-2" d="M208.07,152.38l.21,2a1.87,1.87,0,0,0,1.27,1.57h0a1.86,1.86,0,0,0,2.41-2.05l-.48-3.13Z"/><path class="cls-20" d="M208.26,154.17s3.54-.11,3.8-3.19-3.52-1.24-3.52-1.24l-.43,3Z"/><path class="cls-2" d="M205.3,144a5.46,5.46,0,1,0,7.68-.76A5.46,5.46,0,0,0,205.3,144Z"/><g class="cls-26"><path class="cls-14" d="M211.22,149s-1.91,4,1.18,4.91,3.44-7.59,3.44-7.59l-3.67-6.21-8-.06-.49,5.07s1,.94,7.79,1.52Z"/><polygon class="cls-14" points="208.98 144.93 210.54 149.19 213.27 147.37 208.98 144.93"/></g><path class="cls-2" d="M210.64,147.83a1.54,1.54,0,1,0,2.17-.21A1.55,1.55,0,0,0,210.64,147.83Z"/><path class="cls-1" d="M203.89,145.6s-.26-4.46,3-6.49a5.6,5.6,0,0,1,7.85,2,8.61,8.61,0,0,1,.64,5.71Z"/><path class="cls-27" d="M204.49,145.65,205,143a1.27,1.27,0,0,1,1.44-1h0a1.28,1.28,0,0,1,1.06,1.38l-.29,2.68"/><line class="cls-28" x1="215.39" y1="146.87" x2="202.89" y2="145.47"/><line class="cls-29" x1="291.69" y1="179.23" x2="278.75" y2="191.98"/><line class="cls-29" x1="291.69" y1="165.6" x2="278.75" y2="178.35"/><line class="cls-29" x1="291.69" y1="151.97" x2="278.75" y2="164.73"/><line class="cls-29" x1="291.69" y1="138.35" x2="278.75" y2="151.1"/><line class="cls-29" x1="291.69" y1="124.72" x2="278.75" y2="137.47"/><line class="cls-29" x1="291.69" y1="111.1" x2="278.75" y2="123.85"/><line class="cls-29" x1="291.69" y1="97.47" x2="278.75" y2="110.22"/><line class="cls-29" x1="291.69" y1="83.85" x2="278.75" y2="96.6"/><line class="cls-29" x1="291.69" y1="70.22" x2="278.75" y2="82.97"/><line class="cls-29" x1="291.69" y1="56.59" x2="278.75" y2="69.34"/><line class="cls-29" x1="291.69" y1="42.97" x2="278.75" y2="55.72"/><line class="cls-29" x1="278.75" y1="178.35" x2="291.69" y2="178.35"/><line class="cls-29" x1="278.75" y1="164.73" x2="291.69" y2="164.73"/><line class="cls-29" x1="278.75" y1="151.1" x2="291.69" y2="151.1"/><line class="cls-29" x1="278.75" y1="137.47" x2="291.69" y2="137.47"/><line class="cls-29" x1="278.75" y1="123.85" x2="291.69" y2="123.85"/><line class="cls-29" x1="278.75" y1="110.22" x2="291.69" y2="110.22"/><line class="cls-29" x1="278.75" y1="96.6" x2="291.69" y2="96.6"/><line class="cls-29" x1="278.75" y1="82.97" x2="291.69" y2="82.97"/><line class="cls-29" x1="278.75" y1="69.34" x2="291.69" y2="69.34"/><line class="cls-29" x1="278.75" y1="55.72" x2="291.69" y2="55.72"/><line class="cls-30" x1="278.75" y1="195.67" x2="278.75" y2="45.15"/><line class="cls-30" x1="291.69" y1="195.67" x2="291.69" y2="45.15"/><rect class="cls-14" x="272.08" y="191.98" width="25.76" height="26.76"/><rect class="cls-5" x="273.96" y="19.66" width="22.06" height="25.49" rx="4.3"/><path class="cls-31" d="M276,25.8h8.67a3.26,3.26,0,0,1,3.26,3.26v5.41a3.26,3.26,0,0,1-3.26,3.26H276a0,0,0,0,1,0,0V25.8A0,0,0,0,1,276,25.8Z"/><line class="cls-32" x1="193.42" y1="46.54" x2="203.76" y2="76.59"/><line class="cls-32" x1="186.22" y1="42.97" x2="166.04" y2="70.22"/><rect class="cls-1" x="159.61" y="60.55" width="48" height="48" rx="6.84" transform="translate(227.98 281.76) rotate(-127.41)"/><rect class="cls-33" x="163.97" y="64.91" width="39.27" height="39.27" rx="5.59" transform="translate(227.98 281.76) rotate(-127.41)"/><path class="cls-14" d="M185.38,94.72c-.54,4-6.69,3.23-6.15-.82S185.92,90.64,185.38,94.72ZM188,72.11l-2.41,17-5.17-.69c.77-5.72,1.4-11.28,2.17-17Z"/><circle class="cls-14" cx="190.47" cy="40.42" r="8.65"/><path class="cls-34" d="M196.58,40.42a6.12,6.12,0,1,1-6.11-6.12A6.12,6.12,0,0,1,196.58,40.42Z"/><line class="cls-29" x1="224.39" y1="1.32" x2="224.39" y2="19.66"/><line class="cls-29" x1="207.94" y1="1.32" x2="207.94" y2="19.66"/><line class="cls-29" x1="240.77" y1="1.32" x2="240.77" y2="19.66"/><line class="cls-29" x1="258.98" y1="1.32" x2="258.98" y2="19.66"/><line class="cls-29" x1="275.97" y1="1.32" x2="275.97" y2="19.66"/><line class="cls-29" x1="293.58" y1="1.32" x2="293.58" y2="19.66"/><line class="cls-29" x1="310.88" y1="1.32" x2="310.88" y2="19.66"/><line class="cls-29" x1="207.09" y1="19.66" x2="224.39" y2="1.32"/><line class="cls-29" x1="224.39" y1="19.66" x2="241.68" y2="1.32"/><line class="cls-29" x1="241.68" y1="19.66" x2="258.98" y2="1.32"/><line class="cls-29" x1="258.98" y1="19.66" x2="276.28" y2="1.32"/><line class="cls-29" x1="276.28" y1="19.66" x2="293.58" y2="1.32"/><line class="cls-29" x1="293.58" y1="19.66" x2="310.88" y2="1.32"/><polygon class="cls-35" points="190.47 19.66 331.5 19.66 312.51 1.32 205.06 1.32 190.47 19.66"/><line class="cls-35" x1="190.47" y1="19.66" x2="190.47" y2="40.42"/><path class="cls-1" d="M115.9,216.26l9.87-25.51a1.43,1.43,0,0,1,2.67,0l9.87,25.51Z"/><g class="cls-36"><rect class="cls-37" x="118.19" y="196.23" width="17.53" height="5.42"/><rect class="cls-37" x="117.23" y="206.47" width="19.83" height="5.42"/></g><rect class="cls-38" x="114.1" y="216.26" width="26.13" height="2.15"/><path class="cls-1" d="M259.26,216.34l9.87-25.51a1.42,1.42,0,0,1,2.66,0l9.88,25.51Z"/><g class="cls-39"><rect class="cls-37" x="261.55" y="196.31" width="17.53" height="5.42"/><rect class="cls-37" x="260.59" y="206.55" width="19.83" height="5.42"/></g><rect class="cls-38" x="257.45" y="216.34" width="26.13" height="2.15"/><circle class="cls-6" cx="62.28" cy="173.61" r="20.5" transform="translate(-118.62 209.64) rotate(-81.53)"/><line class="cls-40" x1="62.28" y1="166.31" x2="62.28" y2="218.41"/><line class="cls-40" x1="54.31" y1="167.37" x2="62.28" y2="176.31"/><path class="cls-40" d="M69.35,175.82c-.57.57-7.07,7.34-7.07,7.34"/><line class="cls-40" x1="0.57" y1="218.91" x2="344.47" y2="218.91"/></g></g></svg>